<?xml version="1.0" encoding="utf-8"?>
<!-- Svg Vector Icons : http://www.onlinewebfonts.com/icon -->
<!DOCTYPE svg PUBLIC "-//W3C//DTD SVG 1.1//EN" "http://www.w3.org/Graphics/SVG/1.1/DTD/svg11.dtd">
<svg version="1.1" xmlns="http://www.w3.org/2000/svg" xmlns:xlink="http://www.w3.org/1999/xlink" x="0px" y="0px" viewBox="0 0 1000 1000" enable-background="new 0 0 1000 1000" xml:space="preserve">
<metadata> Svg Vector Icons : http://www.onlinewebfonts.com/icon </metadata>
<g><g transform="translate(0.000000,511.000000) scale(0.100000,-0.100000)"><path d="M525.5,3653c-111.8-41.2-227.4-127.4-301.9-227.4C94.2,3249.1,100,3374.6,100,914.1c0-2201.7,0-2233,39.2-2338.9c52.9-139.2,194.1-288.2,333.3-352.9l107.8-51h1746.8H4074l41.2,45.1c43.1,45.1,54.9,117.6,31.4,180.4c-35.3,88.2-17.6,88.2-1835,88.2c-1682.1,0-1713.5,0-1776.2,39.2c-127.4,78.4-121.6-49-121.6,2403.6c0,2468.3-7.8,2321.2,125.5,2401.6c58.8,35.3,190.2,37.2,4462.1,37.2c4272,0,4403.3-2,4462.1-37.2c133.3-80.4,125.5,66.7,125.5-2401.6c0-2452.6,5.9-2325.2-121.6-2403.6c-62.7-39.2-94.1-39.2-1776.2-39.2c-1817.4,0-1799.7,0-1835-88.2c-25.5-66.7-11.8-141.2,33.3-182.3l45.1-43.1h1746.8h1746.8l123.5,64.7c152.9,78.4,278.4,225.5,321.5,372.5c25.5,92.1,29.4,374.5,25.5,2358.5l-5.9,2252.6l-47.1,98c-58.8,117.6-182.3,245.1-300,307.8l-84.3,45.1l-4430.8,3.9C1335.2,3678.4,588.2,3674.5,525.5,3653z"/><path d="M3560.3,3164.8c-43.1-35.3-68.6-105.9-147-386.2c-51-188.2-90.2-349-84.3-356.8c3.9-7.8,37.2-19.6,76.5-27.4c56.9-9.8,66.7-19.6,56.9-54.9c-7.8-21.6-17.6-56.9-21.6-74.5c-15.7-52.9,92.1-47.1,143.1,9.8c45.1,47.1,221.5,664.6,221.5,776.4c0,76.5-74.5,158.8-145.1,158.8C3632.9,3209.9,3587.8,3190.3,3560.3,3164.8z"/><path d="M1966.4,2980.5c-13.7-5.9-37.3-35.3-54.9-68.6c-23.5-45.1-25.5-70.6-9.8-119.6c31.4-90.2,349-629.3,394.1-670.5c90.2-80.4,254.9-7.8,254.9,113.7c0,62.7-301.9,609.7-390.1,705.8C2113.5,2992.3,2035.1,3008,1966.4,2980.5z"/><path d="M6028.7,2721.7c-72.5-45.1-333.3-329.4-464.6-507.8c-147-200-250.9-429.4-262.7-578.4c-13.7-154.9,15.7-249,107.8-350.9c94.1-103.9,203.9-156.8,350.9-168.6c298-23.5,468.5,156.8,535.2,568.5c27.5,172.5,15.7,796-17.7,927.3C6242.3,2749.2,6146.3,2792.3,6028.7,2721.7z M6020.8,1980.6c0-364.6-60.8-539.1-194.1-550.9c-147-15.7-252.9,90.2-227.4,227.4c25.5,133.3,156.8,343.1,329.4,527.4c43.1,47.1,64.7,56.9,76.5,39.2C6013,2212,6020.8,2102.2,6020.8,1980.6z"/><path d="M7142.2,2551.1c-235.3-243.1-452.9-558.7-513.7-745c-58.8-172.5-49-362.7,19.6-466.6c147-217.6,492.1-296,692.1-156.8c105.9,74.5,200,256.8,239.2,464.6c49,260.8,31.4,866.6-31.4,1015.6c-21.6,54.9-90.2,96.1-160.8,96.1C7357.9,2759,7279.5,2692.3,7142.2,2551.1z M7308.9,1896.3c-5.9-123.5-21.6-258.8-33.3-301.9c-45.1-152.9-162.7-207.8-294.1-139.2c-113.7,58.8-125.5,156.8-41.2,333.3c58.8,127.4,160.7,268.6,274.5,388.2l70.6,74.5l17.7-64.7C7310.8,2151.2,7314.7,2019.8,7308.9,1896.3z"/><path d="M8763.6,2692.3c-117.6-90.2-356.8-368.6-492.1-574.4c-290.2-435.2-276.4-756.7,37.3-941c123.5-72.5,337.2-86.3,448.9-29.4c192.1,100,282.3,284.3,323.5,668.5c25.5,239.2-7.8,760.7-52.9,848.9C8969.4,2776.6,8885.1,2786.4,8763.6,2692.3z M8785.1,1994.4c0-296-23.5-429.4-92.1-509.7c-56.8-68.6-129.4-76.5-233.3-27.5c-172.5,82.3-107.8,319.6,186.3,670.5c56.8,66.7,111.7,121.6,121.5,121.6S8785.1,2135.5,8785.1,1994.4z"/><path d="M4834.7,2188.5c-78.4-41.2-390.1-221.5-515.6-296l-64.7-39.2l39.2-64.7l37.2-66.7l-60.8-49c-62.7-49-62.7-51-23.5-82.4c66.7-52.9,162.7-19.6,470.5,158.8c349,203.9,382.3,231.3,382.3,313.7C5099.4,2190.4,4962.1,2257.1,4834.7,2188.5z"/><path d="M2844.8,1927.7c-488.2-137.2-788.1-674.4-656.8-1178.3c45.1-168.6,119.6-292.1,256.8-421.5c303.9-282.3,729.3-349,1094-168.6c266.6,131.4,454.8,401.9,505.8,723.4c88.2,578.3-362.7,1078.3-966.5,1070.4C2997.7,1953.2,2893.8,1941.4,2844.8,1927.7z M3383.9,1596.4c125.5-62.7,252.9-200,319.6-343.1c66.7-145.1,72.5-360.7,9.8-496c-111.7-250.9-433.3-437.2-690.1-399.9c-362.7,51-641.1,454.8-552.9,807.7C2566.4,1549.3,3040.8,1772.8,3383.9,1596.4z"/><path d="M992.1,1696.4c-60.8-33.3-88.2-76.5-88.2-143.1c0-105.9,60.8-139.2,417.6-235.3c178.4-49,337.2-88.2,352.9-88.2c17.7,0,33.3,27.5,41.2,68.6c15.7,76.5,15.7,76.5,105.9,51c58.8-17.6,62.7-15.7,62.7,29.4c0,119.6-11.8,125.5-476.4,252.9C1048.9,1727.7,1048.9,1727.7,992.1,1696.4z"/><path d="M4919,823.9C4609.2,524,4370,165.2,4315.1-85.8c-47.1-207.8,5.9-354.8,172.5-482.3c105.9-80.4,215.7-109.8,368.6-100c139.2,7.8,223.5,56.8,305.8,170.6c121.6,170.6,186.3,523.5,164.7,905.8c-21.6,368.6-41.2,472.5-100,523.4C5138.6,1006.3,5091.5,990.6,4919,823.9z M5020.9,194.6c0-407.8-56.9-552.9-215.7-552.9c-52.9,0-94.1,15.7-135.3,51c-133.3,111.8-52.9,337.2,241.1,678.4c45.1,52.9,86.3,94.1,96.1,94.1C5015.1,465.2,5020.9,343.6,5020.9,194.6z"/><path d="M6422.7,957.3c-58.8-23.5-343.1-327.4-478.3-511.7c-396-533.3-378.4-927.3,47-1090.1c133.3-51,319.6-31.4,425.4,43.1c196.1,137.2,284.3,472.5,262.7,988.1c-17.6,399.9-31.4,486.2-98,543.1C6526.6,976.9,6489.4,982.7,6422.7,957.3z M6385.4,80.9c-11.8-207.8-45.1-329.4-103.9-392.1c-41.2-45.1-58.8-51-139.2-41.2C5858.1-321,5920.8,0.5,6283.5,382.8l80.4,84.3l15.7-113.7C6389.4,290.7,6391.3,169.1,6385.4,80.9z"/><path d="M7565.7,823.9c-307.8-298-548.9-662.6-603.8-913.6c-49-215.7,35.3-401.9,231.3-519.5c80.4-47.1,111.8-52.9,260.7-52.9c147,0,176.5,5.9,239.2,49c102,68.6,182.3,201.9,233.3,384.3c35.3,131.4,41.2,205.8,41.2,498c0,433.3-23.5,601.9-94.1,662.6C7785.3,1006.3,7738.2,990.6,7565.7,823.9z M7673.5,304.4c21.6-307.8-43.1-615.6-133.3-650.9c-72.5-27.4-164.7-11.8-223.5,39.2c-51,41.2-60.8,64.7-60.8,131.4c0,96.1,52.9,217.6,151,354.9c86.3,121.6,227.4,286.2,243.1,286.2C7655.9,465.2,7667.6,392.6,7673.5,304.4z"/><path d="M1515.5,273c-166.6-94.1-321.5-190.2-349-213.7c-101.9-90.2-31.4-260.7,107.8-260.7c72.5,0,648.9,323.5,723.4,405.8c86.3,96.1,11.8,241.1-121.5,241.1C1835.1,445.6,1717.5,388.7,1515.5,273z"/><path d="M3719.2-105.4c-72.5-56.8-68.6-156.8,7.8-278.4c68.6-109.8,137.2-143.1,219.6-109.8c101.9,41.2,121.5,141.2,54.9,270.5c-45.1,90.2-125.5,158.8-186.2,158.8C3791.7-64.2,3748.6-81.8,3719.2-105.4z"/><path d="M2678.1-219.1c-23.5-9.8-51-29.4-64.7-45.1c-13.7-17.6-68.6-198-123.5-403.9c-88.2-337.2-96.1-382.3-72.5-429.4c52.9-111.8,201.9-127.4,266.6-31.4c27.5,43.1,200,647,200,703.8c0,9.8-23.5,29.4-52.9,41.2l-54.9,21.6l54.9,1.9c60.8,2,68.6,37.3,19.6,96.1C2809.5-215.1,2733-195.5,2678.1-219.1z"/><path d="M4873.9-1464c-74.5-35.3-1786-1750.7-1803.7-1809.6c-13.7-51,33.3-152.9,78.4-170.6c43.1-15.7,3662.3-15.7,3705.4,0c45.1,17.7,92.1,119.6,78.4,170.6c-19.6,60.8-1731.1,1776.2-1807.6,1809.6C5046.4-1430.7,4950.4-1430.7,4873.9-1464z M5707.1-2446.2l696-696H5001.3H3599.6l696,696c382.3,382.3,699.9,696,705.8,696C5007.2-1750.2,5324.8-2063.9,5707.1-2446.2z"/></g></g>
</svg>