<?xml version="1.0" encoding="utf-8"?>
<!-- Svg Vector Icons : http://www.onlinewebfonts.com/icon -->
<!DOCTYPE svg PUBLIC "-//W3C//DTD SVG 1.1//EN" "http://www.w3.org/Graphics/SVG/1.1/DTD/svg11.dtd">
<svg version="1.1" xmlns="http://www.w3.org/2000/svg" xmlns:xlink="http://www.w3.org/1999/xlink" x="0px" y="0px" viewBox="0 0 1000 1000" enable-background="new 0 0 1000 1000" xml:space="preserve">
<metadata> Svg Vector Icons : http://www.onlinewebfonts.com/icon </metadata>
<g><g><path d="M825.8,538.2c-16.1,0-29.2,13.1-29.2,29.2v296.6H203.4V567.5c0-16.1-13.1-29.2-29.2-29.2c-16.1,0-29.2,13.1-29.2,29.2v325.8c0,16.1,13.1,29.2,29.2,29.2h651.7c16.1,0,29.2-13.1,29.2-29.2V567.5C855.1,551.3,842,538.2,825.8,538.2z"/><path d="M981.4,546.8L520.6,86c-11.4-11.4-29.9-11.4-41.3,0L18.6,546.8c-11.4,11.4-11.4,29.9,0,41.3c5.7,5.7,13.2,8.6,20.7,8.6c7.5,0,15-2.9,20.7-8.6L500,148l440.1,440.1c11.4,11.4,29.9,11.4,41.3,0C992.9,576.7,992.9,558.2,981.4,546.8z"/></g><g></g><g></g><g></g><g></g><g></g><g></g><g></g><g></g><g></g><g></g><g></g><g></g><g></g><g></g><g></g></g>
</svg>